<?xml version="1.0" standalone="no"?>
<!DOCTYPE svg PUBLIC "-//W3C//DTD SVG 20010904//EN"
 "http://www.w3.org/TR/2001/REC-SVG-20010904/DTD/svg10.dtd">
<svg version="1.0" xmlns="http://www.w3.org/2000/svg"
 width="202.000000pt" height="31.000000pt" viewBox="0 0 202.000000 31.000000"
 preserveAspectRatio="xMidYMid meet">

<g transform="translate(0.000000,31.000000) scale(0.100000,-0.100000)"
fill="#000000" stroke="none">
<path d="M312 243 c2 -13 14 -19 40 -21 l37 -3 3 -107 c2 -87 6 -107 18 -107
12 0 16 20 18 107 l3 107 37 3 c25 2 37 8 37 18 0 12 -19 16 -98 18 -90 2 -98
1 -95 -15z"/>
<path d="M582 223 c-47 -95 -85 -204 -74 -215 15 -15 38 4 46 38 6 23 10 25
64 22 48 -3 58 -7 68 -26 19 -37 32 -48 45 -35 9 9 1 39 -31 120 -24 59 -48
114 -53 121 -18 24 -46 13 -65 -25z m62 -60 c23 -68 22 -73 -22 -73 -21 0 -41
2 -44 5 -7 8 33 115 42 115 5 0 15 -21 24 -47z"/>
<path d="M785 248 c-3 -8 -4 -66 -3 -129 2 -93 6 -114 18 -114 12 0 16 19 20
93 l5 94 65 -94 c45 -64 72 -93 85 -93 19 0 20 7 20 125 0 104 -2 125 -15 125
-12 0 -16 -19 -20 -95 l-5 -95 -66 95 c-63 92 -93 117 -104 88z"/>
<path d="M1066 245 c-9 -25 -7 -218 3 -234 5 -8 16 -11 25 -8 11 4 16 23 18
66 l3 60 54 -65 c30 -35 59 -63 65 -61 24 8 14 34 -30 85 l-47 53 43 44 c28
28 41 49 37 59 -10 25 -20 20 -73 -41 l-49 -58 -5 55 c-4 40 -9 56 -21 58 -9
2 -19 -4 -23 -13z"/>
</g>
</svg>
